<?xml version="1.0" encoding="UTF-8" standalone="no"?>
<!-- Created with Inkscape (http://www.inkscape.org/) -->

<svg
   width="97.973824mm"
   height="93.295883mm"
   viewBox="0 0 97.973824 93.295883"
   version="1.1"
   id="svg1"
   xml:space="preserve"
   xmlns="http://www.w3.org/2000/svg"
   xmlns:svg="http://www.w3.org/2000/svg"><defs
     id="defs1" /><g
     id="layer1"
     style="stroke:#b6000e;stroke-width:2;stroke-dasharray:none;stroke-opacity:1"
     transform="matrix(0.76883025,0,0,0.76883025,-35.988575,-70.698308)"><g
       id="g1"
       transform="matrix(0.26458333,0,0,0.26458333,45.041306,90.1879)"
       style="stroke:#b6000e;stroke-width:7.55906;stroke-dasharray:none;stroke-opacity:1"><path
         d="m -134,8.6507874 31.93399,99.3958426 104.399214,-0.34397 -84.662922,61.08603 32.588268,99.18326 -84.25855,-61.6426 -84.25856,61.6426 32.58828,-99.18326 -84.66292,-61.08604 104.39921,0.34398 z"
         style="fill:none;fill-opacity:1;stroke:#b6000e;stroke-width:4.34662;stroke-linecap:round;stroke-linejoin:round;stroke-miterlimit:4;stroke-dasharray:none;stroke-opacity:1"
         id="path4109"
         transform="matrix(1.7386748,0,0,1.7394577,480.48242,-4.5867835)" /><path
         d="m -71,167.5 a 12.5,41.5 0 1 1 -25,0 12.5,41.5 0 1 1 25,0 z"
         transform="matrix(1.12,0,0,1.0180723,298.52,83.222892)"
         style="fill:none;fill-opacity:1;stroke:#b6000e;stroke-width:7.07896;stroke-linecap:round;stroke-linejoin:round;stroke-miterlimit:4;stroke-dasharray:none;stroke-opacity:1"
         id="path6049" /><path
         d="m -71,167.5 a 12.5,41.5 0 1 1 -25,0 12.5,41.5 0 1 1 25,0 z"
         transform="matrix(1.12,0,0,1.0180723,384.02,83.222892)"
         style="fill:none;fill-opacity:1;stroke:#b6000e;stroke-width:7.07896;stroke-linecap:round;stroke-linejoin:round;stroke-miterlimit:4;stroke-dasharray:none;stroke-opacity:1"
         id="path7020" /></g></g></svg>
